<svg width="960" height="280" viewBox="0 0 960 280" fill="none" xmlns="http://www.w3.org/2000/svg" role="img" aria-labelledby="title desc">
  <title id="title">FeeCompounder Hook</title>
  <desc id="desc">FeeCompounder Hook logo with layered liquidity curves and Reactive callback path</desc>
  <rect width="960" height="280" rx="28" fill="#0E1117"/>
  <rect x="18" y="18" width="924" height="244" rx="22" fill="#151A23" stroke="#2A3342" stroke-width="2"/>
  <g transform="translate(78 48)">
    <circle cx="92" cy="92" r="88" fill="#172033" stroke="#3A465A" stroke-width="3"/>
    <path d="M42 112C58 78 84 62 120 64C142 65 159 74 172 88" stroke="#7DD3FC" stroke-width="14" stroke-linecap="round"/>
    <path d="M42 136C66 102 94 91 126 103C149 111 164 126 174 148" stroke="#A7F3D0" stroke-width="14" stroke-linecap="round"/>
    <path d="M55 74L84 45L114 74" stroke="#F9C74F" stroke-width="10" stroke-linecap="round" stroke-linejoin="round"/>
    <path d="M84 48V134C84 153 99 168 118 168H154" stroke="#F9C74F" stroke-width="10" stroke-linecap="round"/>
    <circle cx="168" cy="168" r="14" fill="#F9C74F"/>
  </g>
  <g transform="translate(278 72)">
    <text x="0" y="54" fill="#F8FAFC" font-family="Inter, ui-sans-serif, system-ui, -apple-system, BlinkMacSystemFont, Segoe UI, sans-serif" font-size="52" font-weight="800" letter-spacing="0">FeeCompounder</text>
    <text x="2" y="96" fill="#A7F3D0" font-family="Inter, ui-sans-serif, system-ui, -apple-system, BlinkMacSystemFont, Segoe UI, sans-serif" font-size="25" font-weight="650" letter-spacing="0">Uniswap v4 Hook + Reactive Network</text>
    <g transform="translate(2 124)">
      <rect x="0" y="0" width="132" height="38" rx="19" fill="#202938" stroke="#334155"/>
      <text x="20" y="25" fill="#D9F99D" font-family="Inter, ui-sans-serif, system-ui, sans-serif" font-size="16" font-weight="700">Gas-aware</text>
      <rect x="148" y="0" width="144" height="38" rx="19" fill="#202938" stroke="#334155"/>
      <text x="168" y="25" fill="#BFDBFE" font-family="Inter, ui-sans-serif, system-ui, sans-serif" font-size="16" font-weight="700">Route-aware</text>
      <rect x="308" y="0" width="152" height="38" rx="19" fill="#202938" stroke="#334155"/>
      <text x="328" y="25" fill="#FDE68A" font-family="Inter, ui-sans-serif, system-ui, sans-serif" font-size="16" font-weight="700">Share-aware</text>
    </g>
  </g>
</svg>
